<?xml version="1.0" encoding="UTF-8"?>
<svg width="100px" height="140px" viewBox="0 0 100 140" version="1.1" xmlns="http://www.w3.org/2000/svg" xmlns:xlink="http://www.w3.org/1999/xlink">
    <!-- Generator: Sketch 56.2 (81672) - https://sketch.com -->
    <title>Beer</title>
    <desc>Created with Sketch.</desc>
    <defs>
        <polygon id="path-1" points="0 0.0867222222 45.8524143 0.0867222222 45.8524143 140 0 140"></polygon>
    </defs>
    <g id="Beer" stroke="none" stroke-width="1" fill="none" fill-rule="evenodd">
        <g id="Group-6" transform="translate(27.000000, 0.000000)">
            <path d="M42.4979786,131 L10.5001218,131 C8.56626887,131 7,129.373472 7,127.365449 L7,62.6345514 C7,60.6275141 8.56626887,59 10.5001218,59 L42.4979786,59 C44.4318315,59 46,60.6275141 46,62.6345514 L46,127.365449 C46,129.373472 44.4318315,131 42.4979786,131" id="Fill-1" fill="#D33F27"></path>
            <g id="Group-5">
                <mask id="mask-2" fill="white">
                    <use xlink:href="#path-1"></use>
                </mask>
                <g id="Clip-4"></g>
                <path d="M40.7989333,123.937139 L20.8675167,123.937139 C15.354225,123.937139 10.8836,119.402694 10.8836,113.808528 L10.8836,77.0478333 C10.8836,72.25575 14.7131,68.3717222 19.436725,68.3717222 L40.0600583,68.3717222 C41.6422667,68.3717222 42.8076,68.3765833 45.8071833,68.3765833 C45.8551,63.0954722 45.886725,64.0949167 45.7861,62.4518611 C45.685475,60.8097778 45.2149333,59.2726944 44.4731833,57.9086667 L44.4866,57.9086667 C44.4866,57.9086667 44.4521,57.8542222 44.3955583,57.7638056 C44.3246417,57.6374167 44.25085,57.5139444 44.1741833,57.3914444 C42.4530167,54.4368611 33.966975,38.4545 31.0728083,5.99491667 L30.7747667,5.99491667 C32.38285,5.99491667 33.6861833,4.67269444 33.6861833,3.04130556 L33.6861833,3.04033333 C33.6861833,1.40991667 32.38285,0.0867222222 30.7747667,0.0867222222 L15.0312667,0.0867222222 C13.4241417,0.0867222222 12.11985,1.40991667 12.11985,3.04033333 L12.11985,3.04130556 C12.11985,4.67269444 13.4241417,5.99491667 15.0312667,5.99491667 L14.7466417,5.99491667 C11.8821833,38.1317222 3.53605833,54.1160278 1.69893333,57.2981111 C1.59926667,57.4575556 1.50439167,57.6189444 1.41143333,57.78325 C1.36543333,57.8600556 1.33285,57.9086667 1.33285,57.9086667 L1.34339167,57.9086667 C0.6256,59.2289444 0.161766667,60.7106111 0.041975,62.2933889 L0.0381416667,62.2933889 L0.0381416667,62.3721389 C0.0199333333,62.6239444 -0.000191666667,62.8747778 -0.000191666667,63.1314444 C-0.000191666667,63.2617222 0.0285583333,63.3842222 0.0381416667,63.5115833 L0.0381416667,128.142972 C0.0276,128.270333 -0.000191666667,128.392833 -0.000191666667,128.523111 L-0.000191666667,129.336861 C-0.000191666667,135.225611 4.70618333,140.000194 10.5108083,140.000194 L35.2961833,140.000194 C41.1008083,140.000194 45.8071833,135.225611 45.8071833,129.336861 L45.8071833,129.017972 C45.8071833,127.817278 45.8052667,123.938111 45.8052667,123.938111 C45.8052667,123.938111 42.3801833,123.937139 40.7989333,123.937139" id="Fill-3" fill="#8A5D3B" mask="url(#mask-2)"></path>
            </g>
        </g>
    </g>
</svg>