<?xml version="1.0" encoding="UTF-8"?>
<svg width="100px" height="140px" viewBox="0 0 100 140" version="1.1" xmlns="http://www.w3.org/2000/svg" xmlns:xlink="http://www.w3.org/1999/xlink">
    <!-- Generator: Sketch 56.2 (81672) - https://sketch.com -->
    <title>Coconut Water</title>
    <desc>Created with Sketch.</desc>
    <defs>
        <polygon id="path-1" points="0.261926502 0.683896154 42.5489388 0.683896154 42.5489388 22.4728577 0.261926502 22.4728577"></polygon>
    </defs>
    <g id="Coconut-Water" stroke="none" stroke-width="1" fill="none" fill-rule="evenodd">
        <g id="Group-12" transform="translate(0.000000, 21.000000)">
            <g id="Group-3" transform="translate(57.000000, 0.000000)">
                <mask id="mask-2" fill="white">
                    <use xlink:href="#path-1"></use>
                </mask>
                <g id="Clip-2"></g>
                <path d="M1.25709184,22.4728577 C0.913969388,22.4728577 0.572602041,22.2773577 0.397969388,21.9827808 C0.222459184,21.6873192 0.216316327,21.2936654 0.382173469,20.9928962 L9.5692551,4.08524231 C10.7091939,1.98693462 12.9057041,0.683896154 15.304051,0.683896154 C16.1008673,0.683896154 16.8845204,0.828973077 17.6295612,1.11647308 L39.8965408,9.67778077 C41.9061327,10.45005 43.0127245,12.6562808 42.3633367,14.5962423 C41.8315408,16.1832423 40.3537449,17.2492038 38.6820102,17.2492038 L38.6811327,17.2492038 C38.2055,17.2492038 37.7351327,17.1616269 37.2875816,16.9882423 L15.8665612,8.75335769 L8.69696939,21.9509346 C8.52584694,22.2632038 8.17394898,22.4728577 7.81854082,22.4728577 L1.25709184,22.4728577 Z" id="Fill-1" fill="#EEACCD" mask="url(#mask-2)"></path>
            </g>
            <path d="M48.4996458,98 C47.8871813,98 47.2694596,97.9885907 46.6517379,97.9657721 C21.7956678,97.0460067 1.33199338,77.003372 0.0650067263,52.336459 C-0.458961474,42.1567278 2.19242276,32.2683727 7.73351791,23.7412352 C8.43798352,22.6555961 9.64976951,22 10.9500518,22 L86.0501161,22 C87.3503983,22 88.5621843,22.6555961 89.2666499,23.7412352 C94.3258345,31.526768 97,40.5471384 97,49.824657 C97,62.6934731 91.9557108,74.7917225 82.7950293,83.8910804 C73.635224,92.9895607 61.4560301,98 48.5022744,98 L48.4996458,98 Z" id="Fill-4" fill="#C3996B"></path>
            <path d="M29,41 C29,44.3141862 26.0901244,47 22.4995325,47 C18.9098756,47 16,44.3141862 16,41 C16,37.6866841 18.9098756,35 22.4995325,35 C26.0901244,35 29,37.6866841 29,41" id="Fill-6" fill="#8A5D3B"></path>
            <path d="M48,41 C48,44.3141862 45.0901244,47 41.5004675,47 C37.9098756,47 35,44.3141862 35,41 C35,37.6866841 37.9098756,35 41.5004675,35 C45.0901244,35 48,37.6866841 48,41" id="Fill-8" fill="#8A5D3B"></path>
            <path d="M40,55 C40,58.3141862 37.0901244,61 33.4995325,61 C29.9098756,61 27,58.3141862 27,55 C27,51.6866841 29.9098756,49 33.4995325,49 C37.0901244,49 40,51.6866841 40,55" id="Fill-10" fill="#8A5D3B"></path>
        </g>
    </g>
</svg>