<?xml version="1.0" encoding="UTF-8"?>
<svg width="100px" height="140px" viewBox="0 0 100 140" version="1.1" xmlns="http://www.w3.org/2000/svg" xmlns:xlink="http://www.w3.org/1999/xlink">
    <!-- Generator: Sketch 56.2 (81672) - https://sketch.com -->
    <title>Coffee</title>
    <desc>Created with Sketch.</desc>
    <defs>
        <polygon id="path-1" points="0.000161693379 0.637818182 99.5396396 0.637818182 99.5396396 29.7732727 0.000161693379 29.7732727"></polygon>
        <polygon id="path-3" points="0.654779712 0.193156757 65.844534 0.193156757 65.844534 34 0.654779712 34"></polygon>
    </defs>
    <g id="Coffee" stroke="none" stroke-width="1" fill="none" fill-rule="evenodd">
        <g id="Group-11" transform="translate(0.000000, 10.000000)">
            <g id="Group-3">
                <mask id="mask-2" fill="white">
                    <use xlink:href="#path-1"></use>
                </mask>
                <g id="Clip-2"></g>
                <path d="M99.2307207,24.0769091 L93.0063964,8.726 C92.3766667,7.17327273 90.8784685,6.15872727 89.2163063,6.15872727 L84.8063964,6.15872727 C83.0694595,6.15872727 81.5208108,5.05236364 80.9442342,3.39781818 C80.3676577,1.74418182 78.819009,0.637818182 77.0820721,0.637818182 L50.7415315,0.637818182 L48.7982883,0.637818182 L22.4586486,0.637818182 C20.7208108,0.637818182 19.1721622,1.74418182 18.5955856,3.39781818 C18.019009,5.05236364 16.4703604,6.15872727 14.7334234,6.15872727 L10.3235135,6.15872727 C8.66135135,6.15872727 7.16405405,7.17327273 6.53432432,8.726 L0.309099099,24.0769091 C-0.792702703,26.7950909 1.18837838,29.7732727 4.09918919,29.7732727 L7.06585586,29.7732727 L7.77846847,29.7732727 L14.8343243,29.7732727 L16.3451351,29.7732727 L48.7982883,29.7732727 L50.7415315,29.7732727 L85.628018,29.7732727 L86.5784685,29.7732727 L93.6154054,29.7732727 L94.9081982,29.7732727 L95.4415315,29.7732727 C98.3514414,29.7732727 100.333423,26.7950909 99.2307207,24.0769091" id="Fill-1" fill="#666666" mask="url(#mask-2)"></path>
            </g>
            <path d="M17.8767187,85 C17.2917897,85 16.7950501,84.5756998 16.7113603,84.0049362 L11.0123528,45.3305982 C10.9628588,44.9959514 11.0636466,44.657754 11.2868195,44.4021087 C11.5108922,44.1473511 11.8357528,44.0008877 12.1777112,44.0008877 L88.8213973,44 C89.1633558,44 89.4882163,44.1455758 89.7113892,44.4012211 C89.9363618,44.6559787 90.0371496,44.9941761 89.9876556,45.3288229 L84.306646,84.0049362 C84.223856,84.5756998 83.7271164,85 83.1403877,85 L17.8767187,85 Z" id="Fill-4" fill="#C3996B"></path>
            <g id="Group-8" transform="translate(17.000000, 85.000000)">
                <mask id="mask-4" fill="white">
                    <use xlink:href="#path-3"></use>
                </mask>
                <g id="Clip-7"></g>
                <path d="M64.4553324,0.193156757 L61.8670622,0.193156757 L60.9778459,0.193156757 L5.55122432,0.193156757 L4.14917027,0.193156757 L1.99614324,0.193156757 C1.17917027,0.193156757 0.551278378,0.940237838 0.669008108,1.7736973 L4.28830541,27.4482919 C4.81452162,31.2066703 7.95487297,34.0001838 11.6419541,34.0001838 L54.8648189,34.0001838 C58.5519,34.0001838 61.6913595,31.2066703 62.2184676,27.4482919 L65.8297378,1.82975135 C65.951927,0.966886486 65.3017378,0.193156757 64.4553324,0.193156757" id="Fill-6" fill="#FEFEFE" mask="url(#mask-4)"></path>
            </g>
            <path d="M91.369405,30 L88.7068905,30 L87.6140402,30 L13.4057752,30 L12.3038254,30 L9.6303915,30 C8.63763575,30 7.87509742,30.8329441 8.01704966,31.7622618 L9.70682733,42.7798402 C9.81420146,43.4802704 10.4493468,44 11.1973259,44 L12.3038254,44 L15.1010126,44 L85.9251725,44 L88.7068905,44 L89.7979209,44 C90.5495398,44 91.186505,43.4785495 91.2938791,42.7763983 L92.9827468,31.7622618 C93.125609,30.8329441 92.3630707,30 91.369405,30" id="Fill-9" fill="#FEFEFE"></path>
        </g>
    </g>
</svg>