<?xml version="1.0" encoding="UTF-8"?>
<svg width="100px" height="140px" viewBox="0 0 100 140" version="1.1" xmlns="http://www.w3.org/2000/svg" xmlns:xlink="http://www.w3.org/1999/xlink">
    <!-- Generator: Sketch 56.2 (81672) - https://sketch.com -->
    <title>Energy Drink</title>
    <desc>Created with Sketch.</desc>
    <defs>
        <polygon id="path-1" points="0 0.841775342 80.1426226 0.841775342 80.1426226 110.026241 0 110.026241"></polygon>
        <polygon id="path-3" points="0.877282609 0.200951049 69.7892391 0.200951049 69.7892391 15.3010573 0.877282609 15.3010573"></polygon>
    </defs>
    <g id="Energy-Drink" stroke="none" stroke-width="1" fill="none" fill-rule="evenodd">
        <g id="Group-11" transform="translate(10.000000, 1.000000)">
            <g id="Group-3" transform="translate(0.000000, 15.000000)">
                <mask id="mask-2" fill="white">
                    <use xlink:href="#path-1"></use>
                </mask>
                <g id="Clip-2"></g>
                <path d="M67.3907774,110.026241 L12.7524566,110.026241 C5.71004151,110.026241 -0.00122264151,104.345474 -0.00122264151,97.338789 L-0.00122264151,13.5307479 C-0.00122264151,6.52254247 5.71004151,0.841775342 12.7524566,0.841775342 L67.3907774,0.841775342 C74.4331925,0.841775342 80.1429283,6.52254247 80.1429283,13.5307479 L80.1429283,97.338789 C80.1429283,104.345474 74.4331925,110.026241 67.3907774,110.026241" id="Fill-1" fill="#7E3F97" mask="url(#mask-2)"></path>
            </g>
            <g id="Group-6" transform="translate(5.000000, 0.000000)">
                <mask id="mask-4" fill="white">
                    <use xlink:href="#path-3"></use>
                </mask>
                <g id="Clip-5"></g>
                <path d="M62.4559783,0.200637762 L8.21206522,0.200637762 C4.16119565,0.200637762 0.877282609,3.5810014 0.877282609,7.75084755 C0.877282609,11.9206937 4.16119565,15.3010573 8.21206522,15.3010573 L62.4559783,15.3010573 C66.5053261,15.3010573 69.7892391,11.9206937 69.7892391,7.75084755 C69.7892391,3.5810014 66.5053261,0.200637762 62.4559783,0.200637762" id="Fill-4" fill="#E5E6E7" mask="url(#mask-4)"></path>
            </g>
            <path d="M67.65737,124 L13.3441537,124 C9.28810865,124 6,127.357884 6,131.5 C6,135.642116 9.28810865,139 13.3441537,139 L67.65737,139 C71.7118914,139 75,135.642116 75,131.5 C75,127.357884 71.7118914,124 67.65737,124" id="Fill-7" fill="#E5E6E7"></path>
            <path d="M36.7785644,105 C36.3442362,105 35.9038334,104.930992 35.4710238,104.786843 C33.3996123,104.101367 32.1983759,101.923792 32.7086356,99.7845538 L37.8917203,78.0195355 L28.186155,78.018002 C26.7829408,78.018002 25.4738816,77.3079898 24.6978616,76.1271919 C23.9218416,74.946394 23.7836462,73.4512279 24.3303531,72.1477497 L38.3655329,38.5839538 C39.0352488,36.9799089 40.5812143,36 42.2213348,36 C42.6556631,36 43.0960658,36.0690077 43.5288754,36.213157 C45.6018056,36.9001667 46.8015234,39.077742 46.2912636,41.2169797 L41.1081789,62.981998 L50.8137442,62.981998 C52.2184771,62.981998 53.5275363,63.6920102 54.3035563,64.8728081 C55.0780577,66.053606 55.216253,67.5487721 54.6695462,68.8537838 L40.6343663,102.416046 C39.9646504,104.020091 38.4202036,105 36.7785644,105" id="Fill-9" fill="#FFF100"></path>
        </g>
    </g>
</svg>