<?xml version="1.0" encoding="UTF-8"?>
<svg width="100px" height="140px" viewBox="0 0 100 140" version="1.1" xmlns="http://www.w3.org/2000/svg" xmlns:xlink="http://www.w3.org/1999/xlink">
    <!-- Generator: Sketch 56.2 (81672) - https://sketch.com -->
    <title>Juice</title>
    <desc>Created with Sketch.</desc>
    <defs>
        <path d="M3.77864078,0.726807407 C3.63495146,0.726807407 3.49126214,0.736511111 3.34951456,0.754948148 L3.34951456,0.754948148 C1.52912621,0.988807407 0.245631068,2.63843704 0.483495146,4.43944444 L0.483495146,4.43944444 L16.6961165,127.732763 C16.9116505,129.371719 18.3223301,130.596326 19.992233,130.596326 L19.992233,130.596326 L79.9728155,130.596326 C81.6427184,130.596326 83.0533981,129.371719 83.2679612,127.732763 L83.2679612,127.732763 L99.4825243,4.43944444 C99.5019417,4.29777037 99.5106796,4.1560963 99.5106796,4.01442222 L99.5106796,4.01442222 C99.5106796,2.19885926 98.0223301,0.726807407 96.1873786,0.726807407 L96.1873786,0.726807407 L3.77864078,0.726807407 Z" id="path-1"></path>
        <path d="M0.539011765,0.90771875 L13.6754706,90.2322813 C13.8922471,91.709625 15.3110588,92.814 16.9905882,92.814 L16.9905882,92.814 L65.9752353,92.814 C67.6537882,92.814 69.0716235,91.709625 69.2893765,90.2322813 L69.2893765,90.2322813 L82.4268118,0.90771875 L0.539011765,0.90771875 Z" id="path-3"></path>
        <path d="M6.37980769,1.98594118 C2.56538462,7.09539216 0.652884615,13.1579412 0.640384615,19.2233725 L0.640384615,19.2233725 L0.640384615,19.3309804 C0.653846154,26.7751373 3.53269231,34.2173725 9.275,39.8975294 L9.275,39.8975294 C19.7230769,50.2326863 36.0653846,51.1848235 47.6019231,42.7577843 L47.6019231,42.7577843 C48.6105769,42.0208627 49.125,40.8948235 49.1336538,39.7514902 L49.1336538,39.7514902 L49.1336538,39.6871176 C49.1259615,38.6975098 48.7413462,37.7011765 47.9730769,36.9411961 L47.9730769,36.9411961 L12.2634615,1.61988235 C11.4875,0.852215686 10.4663462,0.470784314 9.45480769,0.470784314 L9.45480769,0.470784314 C8.2875,0.470784314 7.13269231,0.979039216 6.37980769,1.98594118 L6.37980769,1.98594118 Z" id="path-5"></path>
        <path d="M5.85486957,0.778 C2.80643478,4.8 0.914434783,9.804 0.693478261,15.255 L0.693478261,15.255 C0.669565217,15.871 1.16504348,16.38 1.76095652,16.3790015 L1.76095652,16.3790015 L19.9846087,16.338 C20.9258261,16.337 21.4021739,15.166 20.7402609,14.474 L20.7402609,14.474 C19.3475652,13.014 16.2436522,9.785 7.42643478,0.701 L7.42643478,0.701 C7.21695652,0.484 6.93956522,0.375 6.666,0.375 L6.666,0.375 C6.36086957,0.375 6.0586087,0.51 5.85486957,0.778 L5.85486957,0.778 Z" id="path-7"></path>
        <path d="M0.308,1.45238095 C0.296,3.26571429 0.286,7.28571429 0.311,18.6590476 L0.311,18.6590476 C0.312,19.2304762 0.837,19.6952381 1.439,19.6257143 L1.439,19.6257143 C6.192,19.0857143 10.807,17.1819048 14.569,13.9209524 L14.569,13.9209524 C14.994,13.5514286 14.993,12.912381 14.582,12.5285714 L14.582,12.5285714 L2.061,0.776190476 C1.851,0.579047619 1.592,0.49047619 1.34,0.49047619 L1.34,0.49047619 C0.814,0.49047619 0.312,0.871428571 0.308,1.45238095 L0.308,1.45238095 Z" id="path-9"></path>
        <path d="M14.792,1.155 C13.354,2.49518182 10.176,5.48386364 1.232,13.9697727 L1.232,13.9697727 C0.781,14.3974091 0.806,15.1095 1.307,15.4817727 L1.307,15.4817727 C5.267,18.417 10.195,20.2392273 15.56,20.4520909 L15.56,20.4520909 C16.166,20.4759545 16.667,19.9986818 16.667,19.4240455 L16.667,19.4240455 L16.628,1.88140909 C16.625,1.26763636 16.094,0.858136364 15.54,0.858136364 L15.54,0.858136364 C15.278,0.858136364 15.01,0.950727273 14.792,1.155 L14.792,1.155 Z" id="path-11"></path>
        <path d="M1.84034783,1.014 C1.21382609,1.016 0.706869565,1.576 0.782434783,2.219 L0.782434783,2.219 C1.37547826,7.293 3.45591304,12.218 7.02373913,16.232 L7.02373913,16.232 C7.42834783,16.687 8.12565217,16.685 8.54747826,16.247 L8.54747826,16.247 L21.406,2.883 C22.0688696,2.192 21.6068696,1.018 20.6656522,1.01 L20.6656522,1.01 C19.5752174,1.004 17.7549565,0.998 14.2674783,0.998 L14.2674783,0.998 C11.4132174,0.998 7.44078261,1.001 1.84034783,1.014 L1.84034783,1.014 Z" id="path-13"></path>
    </defs>
    <g id="Juice" stroke="none" stroke-width="1" fill="none" fill-rule="evenodd">
        <g id="Group-22" transform="translate(0.000000, 4.000000)">
            <g id="Group-3">
                <mask id="mask-2" fill="white">
                    <use xlink:href="#path-1"></use>
                </mask>
                <g id="Clip-2"></g>
                <polygon id="Fill-1" fill="#FEFEFE" mask="url(#mask-2)" points="-17.4757282 148.467637 117.439806 148.467637 117.439806 -17.142563 -17.4757282 -17.142563"></polygon>
            </g>
            <g id="Group-6" transform="translate(9.000000, 31.000000)">
                <mask id="mask-4" fill="white">
                    <use xlink:href="#path-3"></use>
                </mask>
                <g id="Clip-5"></g>
                <polygon id="Fill-4" fill="#FECC04" mask="url(#mask-4)" points="-12.4802706 105.730344 95.4460941 105.730344 95.4460941 -12.008625 -12.4802706 -12.008625"></polygon>
            </g>
            <g id="Group-9" transform="translate(25.000000, 45.000000)">
                <mask id="mask-6" fill="white">
                    <use xlink:href="#path-5"></use>
                </mask>
                <g id="Clip-8"></g>
                <polygon id="Fill-7" fill="#FAAE40" mask="url(#mask-6)" points="-12.1807692 61.2461569 61.9548077 61.2461569 61.9548077 -12.3393529 -12.1807692 -12.3393529"></polygon>
            </g>
            <g id="Group-12" transform="translate(32.000000, 47.000000)">
                <mask id="mask-8" fill="white">
                    <use xlink:href="#path-7"></use>
                </mask>
                <g id="Clip-11"></g>
                <polygon id="Fill-10" fill="#F05A29" mask="url(#mask-8)" points="-12.0607826 29.712 33.8015652 29.712 33.8015652 -12.958 -12.0607826 -12.958"></polygon>
            </g>
            <g id="Group-15" transform="translate(58.000000, 68.000000)">
                <mask id="mask-10" fill="white">
                    <use xlink:href="#path-9"></use>
                </mask>
                <g id="Clip-14"></g>
                <polygon id="Fill-13" fill="#F05A29" mask="url(#mask-10)" points="-13.038 32.3314286 28.222 32.3314286 28.222 -12.207619 -13.038 -12.207619"></polygon>
            </g>
            <g id="Group-18" transform="translate(41.000000, 67.000000)">
                <mask id="mask-12" fill="white">
                    <use xlink:href="#path-11"></use>
                </mask>
                <g id="Clip-17"></g>
                <polygon id="Fill-16" fill="#F05A29" mask="url(#mask-12)" points="-12.422 33.18 30 33.18 30 -11.8688182 -12.422 -11.8688182"></polygon>
            </g>
            <g id="Group-21" transform="translate(32.000000, 63.000000)">
                <mask id="mask-14" fill="white">
                    <use xlink:href="#path-13"></use>
                </mask>
                <g id="Clip-20"></g>
                <polygon id="Fill-19" fill="#F05A29" mask="url(#mask-14)" points="-11.9785217 29.908 34.472087 29.908 34.472087 -12.335 -11.9785217 -12.335"></polygon>
            </g>
        </g>
    </g>
</svg>