<?xml version="1.0" encoding="UTF-8"?>
<svg width="100px" height="140px" viewBox="0 0 100 140" version="1.1" xmlns="http://www.w3.org/2000/svg" xmlns:xlink="http://www.w3.org/1999/xlink">
    <!-- Generator: Sketch 56.2 (81672) - https://sketch.com -->
    <title>Kombucha</title>
    <desc>Created with Sketch.</desc>
    <defs>
        <polygon id="path-1" points="0 0 56 0 56 140 0 140"></polygon>
    </defs>
    <g id="Kombucha" stroke="none" stroke-width="1" fill="none" fill-rule="evenodd">
        <g id="Group-3" transform="translate(22.000000, 0.000000)">
            <mask id="mask-2" fill="white">
                <use xlink:href="#path-1"></use>
            </mask>
            <g id="Clip-2"></g>
            <path d="M55.9768169,51.9719134 L55.9768169,46.6471621 L55.9768169,46.4365126 C55.9884084,46.1790521 55.9884084,45.9215916 55.9768169,45.6641311 C55.8493097,43.6629608 55.2697315,41.7905208 54.3644305,40.140433 L54.3876136,40.140433 C54.3876136,40.140433 54.3424065,40.0702165 54.271698,39.9648917 C54.1789655,39.8010532 54.0978245,39.6606202 54.0062512,39.5084845 C51.8954275,35.9157402 40.9773344,27.2791106 37.9971435,7.27911059 L37.9855519,7.17378584 C38.8792615,7.08016384 39.6895117,6.64716208 40.2574983,6.01521358 C40.8370764,5.37156232 41.1848233,4.51726156 41.1848233,3.59274429 C41.1848233,1.60327677 39.5851876,0 37.6273726,0 L18.3737865,0 C17.3873445,0 16.5063857,0.397893505 15.8584173,1.05324751 C15.2081307,1.69689877 14.8140175,2.59801053 14.8140175,3.59274429 C14.8140175,5.46518432 16.2281882,6.99824459 18.0260396,7.17378584 L18.0260396,7.22059684 C16.0554739,28.3440609 4.323653,35.5178467 2.07604893,39.391457 C1.95897415,39.5904037 1.84421767,39.7893505 1.72714289,39.9882972 C1.66918507,40.0819193 1.63441038,40.140433 1.63441038,40.140433 L1.64600195,40.140433 C0.765043158,41.7437098 0.197056571,43.5459333 0.0591169713,45.4651843 L0.0475254083,45.4651843 L0.0475254083,45.5705091 C0.023183126,45.8747806 0,46.1790521 0,46.4950263 C0,46.5418373 0,46.6003511 0.0127507193,46.6471621 C0.023183126,46.7524868 0.034774689,46.8461088 0.0475254083,46.9514336 L0.0475254083,125.570509 C0.034774689,125.734348 0,125.874781 0,126.038619 L0,127.033353 C0,134.195436 5.7505744,140 12.8562025,140 L43.1449566,140 C50.2505848,140 56,134.195436 56,127.033353 L56,126.635459 L55.9768169,51.9719134 Z" id="Fill-1" fill="#C3996B" mask="url(#mask-2)"></path>
        </g>
    </g>
</svg>