<?xml version="1.0" encoding="UTF-8"?>
<svg width="100px" height="140px" viewBox="0 0 100 140" version="1.1" xmlns="http://www.w3.org/2000/svg" xmlns:xlink="http://www.w3.org/1999/xlink">
    <!-- Generator: Sketch 56.2 (81672) - https://sketch.com -->
    <title>Milk Shake</title>
    <desc>Created with Sketch.</desc>
    <defs>
        <polygon id="path-1" points="0.730596808 0.0461742424 42.462242 0.0461742424 42.462242 114.265004 0.730596808 114.265004"></polygon>
        <polygon id="path-3" points="0.000515492958 0.261665217 60.8475859 0.261665217 60.8475859 81 0.000515492958 81"></polygon>
    </defs>
    <g id="Milk-Shake" stroke="none" stroke-width="1" fill="none" fill-rule="evenodd">
        <g id="Group-23" transform="translate(20.000000, 0.000000)">
            <g id="Group-3" transform="translate(18.000000, 0.000000)">
                <mask id="mask-2" fill="white">
                    <use xlink:href="#path-1"></use>
                </mask>
                <g id="Clip-2"></g>
                <path d="M42.462242,3.91339773 C42.462242,4.29673106 42.402042,4.68877652 42.290242,5.07210985 L39.512442,13.7232462 L36.175642,24.1516553 L32.847442,34.5626402 L29.510642,44.9823371 L26.182442,55.393322 L22.845642,65.8130189 L19.508842,76.2240038 L16.172042,86.6524129 L12.843842,97.0633977 L12.835242,97.0633977 L9.507042,107.483095 L8.191242,111.586504 C7.546242,113.616428 5.387642,114.73158 3.375242,114.07817 C2.265842,113.712261 1.440242,112.88461 1.018842,111.865292 C0.692042,111.046352 0.623242,110.105443 0.915642,109.199383 L3.211842,102.038019 L6.540042,91.6270341 L9.876842,81.2073371 L16.541842,60.3766553 L19.878642,49.9656705 L23.215442,39.5372614 L26.543642,29.1262765 L29.880442,18.7065795 L33.217242,8.2955947 L34.997442,2.71983712 C35.651042,0.689912879 37.809642,-0.425238636 39.813442,0.236882576 C41.301242,0.716049242 42.290242,2.04029167 42.445042,3.52135227 C42.453642,3.65203409 42.462242,3.78271591 42.462242,3.91339773" id="Fill-1" fill="#D33F27" mask="url(#mask-2)"></path>
            </g>
            <polygon id="Fill-4" fill="#FEFEFE" points="50.6588181 34.1466093 54 24 44.3403197 28.8542398 41 39"></polygon>
            <polygon id="Fill-6" fill="#FEFEFE" points="44.6588181 54.1466093 48 44 38.3411819 48.8542398 35 59"></polygon>
            <path d="M60,3.38726334 C60,3.76592083 59.9425837,4.15318417 59.8359535,4.53184165 L57.1866029,13.0774527 L48,18 L51.1825017,7.71600688 L59.9835954,3 C59.9917977,3.12908778 60,3.25817556 60,3.38726334" id="Fill-8" fill="#FEFEFE"></path>
            <polygon id="Fill-10" fill="#FEFEFE" points="30.6588181 97.1466093 34 87 24.3403197 91.8542398 21 102"></polygon>
            <polygon id="Fill-12" fill="#FEFEFE" points="17.1373481 112.115561 17 112.545139 24.447614 115 27 107"></polygon>
            <polygon id="Fill-14" fill="#FEFEFE" points="41 67 31.3411819 71.8533907 28 82 37.6588181 77.1466093"></polygon>
            <path d="M29,32.0004279 C29,35.8660676 25.865876,39 22,39 C18.134124,39 15,35.8660676 15,32.0004279 C15,28.1339324 18.134124,25 22,25 C25.865876,25 29,28.1339324 29,32.0004279" id="Fill-16" fill="#D33F27"></path>
            <path d="M40.4463318,42.7087672 C40.0317582,42.5828196 39.6223347,42.440593 39.2189194,42.2778036 C33.8663715,40.1109911 30.4373419,37 24.3268883,37 C11.9961149,37 2,47.2968578 2,59.9995716 C2,72.7022854 11.9961149,83 24.3268883,83 C28.6065233,83 32.6029093,81.7576599 35.9993224,79.6071262 C37.4018341,79.9438432 38.864429,80.1263387 40.3707987,80.1263387 C50.6587459,80.1263387 59,71.8009462 59,61.5306487 C59,53.9352381 53.6457355,45.8094768 46.0641037,43.9759541 C44.1989519,43.5244277 42.2754337,43.2673918 40.4463318,42.7087672" id="Fill-18" fill="#FEFEFE"></path>
            <g id="Group-22" transform="translate(0.000000, 59.000000)">
                <mask id="mask-4" fill="white">
                    <use xlink:href="#path-3"></use>
                </mask>
                <g id="Clip-21"></g>
                <path d="M49.4208254,81.0001761 L11.4272761,81.0001761 C5.11592394,81.0001761 0.000515492958,75.757187 0.000515492958,69.2903935 L0.000515492958,0.261665217 L60.8475859,0.261665217 L60.8475859,69.2903935 C60.8475859,75.757187 55.7321775,81.0001761 49.4208254,81.0001761" id="Fill-20" fill="#8A5D3B" mask="url(#mask-4)"></path>
            </g>
        </g>
    </g>
</svg>