<?xml version="1.0" encoding="UTF-8"?>
<svg width="100px" height="140px" viewBox="0 0 100 140" version="1.1" xmlns="http://www.w3.org/2000/svg" xmlns:xlink="http://www.w3.org/1999/xlink">
    <!-- Generator: Sketch 56.2 (81672) - https://sketch.com -->
    <title>Milk</title>
    <desc>Created with Sketch.</desc>
    <defs>
        <polygon id="path-1" points="0.000555319149 0.251471698 86.2567979 0.251471698 86.2567979 97.8936792 0.000555319149 97.8936792"></polygon>
        <polygon id="path-3" points="0 0.260881081 30.2165682 0.260881081 30.2165682 33.4361514 0 33.4361514"></polygon>
        <polygon id="path-5" points="0.000281818182 0.35705283 30.2158879 0.35705283 30.2158879 98 0.000281818182 98"></polygon>
    </defs>
    <g id="Milk" stroke="none" stroke-width="1" fill="none" fill-rule="evenodd">
        <g id="Group-14" transform="translate(7.000000, 0.000000)">
            <g id="Group-3" transform="translate(0.000000, 42.000000)">
                <mask id="mask-2" fill="white">
                    <use xlink:href="#path-1"></use>
                </mask>
                <g id="Clip-2"></g>
                <path d="M82.8060447,97.8936792 L3.4509383,97.8936792 C1.54526809,97.8936792 0.000555319149,96.3506415 0.000555319149,94.4470377 L0.000555319149,3.69811321 C0.000555319149,1.79450943 1.54526809,0.251471698 3.4509383,0.251471698 L82.8060447,0.251471698 C84.7126404,0.251471698 86.2573532,1.79450943 86.2573532,3.69811321 L86.2573532,94.4470377 C86.2573532,96.3506415 84.7126404,97.8936792 82.8060447,97.8936792" id="Fill-1" fill="#FEFEFE" mask="url(#mask-2)"></path>
            </g>
            <path d="M81.9933805,43 L5.00661955,43 C2.38219698,43 0.467977561,40.4732848 1.13286827,37.888181 L12.8650913,12.548514 C13.3265384,10.7535385 13.0555885,9 14.8773336,9 L71.3403333,9 C73.1620783,9 74.7544869,10.2515857 75.215934,12.0456195 L85.8671317,37.888181 C86.5320224,40.4732848 84.617803,43 81.9933805,43" id="Fill-4" fill="#FEFEFE"></path>
            <path d="M69.2842437,0 L15.7166832,0 C14.7684289,0 14,0.736234458 14,1.64387211 L14,7.35612789 C14,8.26376554 14.7684289,9 15.7166832,9 L69.2842437,9 C70.2315711,9 71,8.26376554 71,7.35612789 L71,1.64387211 C71,0.736234458 70.2315711,0 69.2842437,0" id="Fill-6" fill="#FEFEFE"></path>
            <g id="Group-10" transform="translate(0.000000, 9.000000)">
                <mask id="mask-4" fill="white">
                    <use xlink:href="#path-3"></use>
                </mask>
                <g id="Clip-9"></g>
                <path d="M15.1080848,33.4361514 L3.12047879,33.4361514 C0.766357576,33.4361514 -0.737612121,30.5286919 0.371812121,28.1257189 L6.51450909,14.8271243 L12.3603576,2.16717838 C13.5346,-0.374551351 16.6815697,-0.374551351 17.8558121,2.16717838 L23.7016606,14.8271243 L29.8443576,28.1257189 C30.9537818,30.5286919 29.4498121,33.4361514 27.0956909,33.4361514 L15.1080848,33.4361514 Z" id="Fill-8" fill="#E5E6E7" mask="url(#mask-4)"></path>
            </g>
            <g id="Group-13" transform="translate(0.000000, 42.000000)">
                <mask id="mask-6" fill="white">
                    <use xlink:href="#path-5"></use>
                </mask>
                <g id="Clip-12"></g>
                <path d="M26.7138273,98.0001849 L3.50234242,98.0001849 C1.5681303,98.0001849 0.000281818182,96.4571472 0.000281818182,94.5535434 L0.000281818182,3.80369434 C0.000281818182,1.90009057 1.5681303,0.35705283 3.50234242,0.35705283 L26.7138273,0.35705283 C28.6480394,0.35705283 30.2158879,1.90009057 30.2158879,3.80369434 L30.2158879,94.5535434 C30.2158879,96.4571472 28.6480394,98.0001849 26.7138273,98.0001849" id="Fill-11" fill="#E5E6E7" mask="url(#mask-6)"></path>
            </g>
        </g>
    </g>
</svg>