<?xml version="1.0" encoding="UTF-8"?>
<svg width="100px" height="140px" viewBox="0 0 100 140" version="1.1" xmlns="http://www.w3.org/2000/svg" xmlns:xlink="http://www.w3.org/1999/xlink">
    <!-- Generator: Sketch 56.2 (81672) - https://sketch.com -->
    <title>Other</title>
    <desc>Created with Sketch.</desc>
    <defs>
        <path d="M3.95576923,0.190720588 C3.8125,0.190720588 3.66923077,0.199389706 3.52692308,0.218654412 L3.52692308,0.218654412 C1.70673077,0.453683824 0.422115385,2.10755882 0.659615385,3.913625 L0.659615385,3.913625 L16.8807692,127.546801 C17.0961538,129.190081 18.5076923,130.419169 20.1778846,130.419169 L20.1778846,130.419169 L80.1875,130.419169 C81.8586538,130.419169 83.2692308,129.190081 83.4846154,127.546801 L83.4846154,127.546801 L99.7057692,3.913625 C99.7240385,3.77202941 99.7336538,3.62947059 99.7336538,3.487875 L99.7336538,3.487875 C99.7336538,1.66736029 98.2451923,0.190720588 96.4086538,0.190720588 L96.4086538,0.190720588 L3.95576923,0.190720588 Z" id="path-1"></path>
        <path d="M0.80394186,0.684556701 L13.9198721,89.9894845 C14.1370233,91.4659794 15.5528488,92.5704742 17.2292558,92.5704742 L17.2292558,92.5704742 L66.1384535,92.5704742 C67.8138953,92.5704742 69.230686,91.4659794 69.4468721,89.9894845 L69.4468721,89.9894845 L82.5637674,0.684556701 L0.80394186,0.684556701 Z M27.4672093,34.5844948 C30.1705,30.5471443 34.8754419,27.9872474 41.633186,27.9872474 L41.633186,27.9872474 C49.1417907,27.9872474 54.3476279,31.2853918 54.3476279,37.0945361 L54.3476279,37.0945361 C54.3476279,44.9698144 45.9376047,45.8557113 45.9376047,51.0742577 L45.9376047,51.0742577 L38.378814,51.0742577 C38.378814,44.1826701 46.1875698,42.6563196 46.1875698,38.3735258 L46.1875698,38.3735258 C46.1875698,35.9622371 44.0363256,34.4358866 40.7829186,34.4358866 L40.7829186,34.4358866 C37.5787326,34.4358866 35.125407,35.8145876 33.5242791,38.0791856 L33.5242791,38.0791856 L27.4672093,34.5844948 Z M37.3789535,58.9495361 C37.3789535,56.4394948 39.3806047,54.5689485 42.1833023,54.5689485 L42.1833023,54.5689485 C44.9879302,54.5689485 46.9895814,56.4394948 46.9895814,58.9495361 L46.9895814,58.9495361 C46.9895814,61.4106804 44.9879302,63.4288763 42.1833023,63.4288763 L42.1833023,63.4288763 C39.3806047,63.4288763 37.3789535,61.4106804 37.3789535,58.9495361 L37.3789535,58.9495361 Z" id="path-3"></path>
    </defs>
    <g id="Other" stroke="none" stroke-width="1" fill="none" fill-rule="evenodd">
        <g id="Group-7" transform="translate(0.000000, 4.000000)">
            <g id="Group-3">
                <mask id="mask-2" fill="white">
                    <use xlink:href="#path-1"></use>
                </mask>
                <g id="Clip-2"></g>
                <polygon id="Fill-1" fill="#FEFEFE" mask="url(#mask-2)" points="-17.3076923 148.338235 117.672115 148.338235 117.672115 -17.7283456 -17.3076923 -17.7283456"></polygon>
            </g>
            <g id="Group-6" transform="translate(9.000000, 31.000000)">
                <mask id="mask-4" fill="white">
                    <use xlink:href="#path-3"></use>
                </mask>
                <g id="Clip-5"></g>
                <polygon id="Fill-4" fill="#D1D1D5" mask="url(#mask-4)" points="-12.1961744 105.483093 95.5619535 105.483093 95.5619535 -12.2290206 -12.1961744 -12.2290206"></polygon>
            </g>
        </g>
    </g>
</svg>