<?xml version="1.0" encoding="UTF-8"?>
<svg width="100px" height="140px" viewBox="0 0 100 140" version="1.1" xmlns="http://www.w3.org/2000/svg" xmlns:xlink="http://www.w3.org/1999/xlink">
    <!-- Generator: Sketch 56.2 (81672) - https://sketch.com -->
    <title>Smoothie</title>
    <desc>Created with Sketch.</desc>
    <defs>
        <path d="M3.17078313,0.754542056 C3.06506024,0.754542056 2.95753012,0.761719626 2.85180723,0.774280374 L2.85180723,0.774280374 C1.49638554,0.94564486 0.54126506,2.14968224 0.71746988,3.46407477 L0.71746988,3.46407477 L12.7870482,93.4322243 C12.9478916,94.6272897 13.9978916,95.5208972 15.2403614,95.5208972 L15.2403614,95.5208972 L59.8906627,95.5208972 C61.1331325,95.5208972 62.1831325,94.6272897 62.3430723,93.4322243 L62.3430723,93.4322243 L74.4135542,3.46407477 C74.428012,3.3608972 74.4343373,3.25771963 74.4343373,3.15454206 L74.4343373,3.15454206 C74.4343373,1.82938318 73.326506,0.754542056 71.960241,0.754542056 L71.960241,0.754542056 L3.17078313,0.754542056 Z" id="path-1"></path>
    </defs>
    <g id="Smoothie" stroke="none" stroke-width="1" fill="none" fill-rule="evenodd">
        <g id="Group-11" transform="translate(13.000000, 0.000000)">
            <g id="Group-5" transform="translate(3.000000, 0.000000)">
                <path d="M30.8239091,23.9164848 C30.5166364,24.0144468 30.1539091,23.9398519 29.9120909,23.7304468 C29.6711818,23.5210418 29.5539091,23.1759278 29.6148182,22.8649658 L33.0166364,5.3747 C33.4384545,3.20425696 35.0366364,1.43105443 37.1866364,0.748016456 C37.9020909,0.520636709 38.6457273,0.425370886 39.3966364,0.46491519 L61.8157273,1.6458519 C63.8384545,1.75190253 65.4620909,3.37681392 65.4351568,5.26864937 C65.4120909,6.81537089 64.3911818,8.1751557 62.8920909,8.65148481 L62.8920909,8.65148481 C62.4639091,8.78809241 62.0175455,8.84381392 61.5666364,8.82044684 L40.0002727,7.68444684 L37.3457273,21.336219 C37.2820909,21.6597633 37.0266364,21.944662 36.7075455,22.0453203 L30.8239091,23.9164848 Z" id="Fill-1" fill="#EEACCD"></path>
                <path d="M69.6693636,44.6439911 C69.6693636,59.1315861 54.1766364,70.8762443 35.0666364,70.8762443 C15.9557273,70.8762443 0.463,59.1315861 0.463,44.6439911 C0.463,30.1563962 15.9557273,18.411738 35.0666364,18.411738 C54.1766364,18.411738 69.6693636,30.1563962 69.6693636,44.6439911" id="Fill-3" fill="#FEFEFE"></path>
            </g>
            <g id="Group-8" transform="translate(0.000000, 43.000000)">
                <mask id="mask-2" fill="white">
                    <use xlink:href="#path-1"></use>
                </mask>
                <g id="Clip-7"></g>
                <polygon id="Fill-6" fill="#FEFEFE" mask="url(#mask-2)" points="-12.6506024 108.560748 87.7816265 108.560748 87.7816265 -12.2844112 -12.6506024 -12.2844112"></polygon>
            </g>
            <path d="M7,55 L16.7857558,131.781434 C16.9476391,133.049828 18.004428,134 19.2549312,134 L55.7450688,134 C56.995572,134 58.0523609,133.049828 58.2142442,131.781434 L68,55 L7,55 Z" id="Fill-9" fill="#8CC63F"></path>
        </g>
    </g>
</svg>