<?xml version="1.0" encoding="UTF-8"?>
<svg width="100px" height="140px" viewBox="0 0 100 140" version="1.1" xmlns="http://www.w3.org/2000/svg" xmlns:xlink="http://www.w3.org/1999/xlink">
    <!-- Generator: Sketch 56.2 (81672) - https://sketch.com -->
    <title>Soda</title>
    <desc>Created with Sketch.</desc>
    <defs>
        <polygon id="path-1" points="0.885347826 0.0478181818 69.9631739 0.0478181818 69.9631739 14.9823182 0.885347826 14.9823182"></polygon>
        <polygon id="path-3" points="0.885347826 0.5049 69.9631739 0.5049 69.9631739 15 0.885347826 15"></polygon>
    </defs>
    <g id="Soda" stroke="none" stroke-width="1" fill="none" fill-rule="evenodd">
        <g id="Group-11" transform="translate(10.000000, 1.000000)">
            <path d="M80,27.6783278 L80,111.344388 C80,118.330189 74.3020203,124 67.2586843,124 L12.7200091,124 C5.69645779,124 0,118.330189 0,111.344388 L0,27.6783278 C0,20.6698112 5.69645779,15 12.7200091,15 L67.2586843,15 C74.3020203,15 80,20.6698112 80,27.6783278" id="Fill-1" fill="#D33F27"></path>
            <g id="Group-5" transform="translate(5.000000, 0.000000)">
                <mask id="mask-2" fill="white">
                    <use xlink:href="#path-1"></use>
                </mask>
                <g id="Clip-4"></g>
                <path d="M62.6116522,0.0470454545 L8.23991304,0.0470454545 C4.1783913,0.0470454545 0.885347826,3.39140909 0.885347826,7.51468182 C0.885347826,11.6379545 4.1783913,14.9823182 8.23991304,14.9823182 L62.6116522,14.9823182 C66.6716522,14.9823182 69.9631739,11.6379545 69.9631739,7.51468182 C69.9631739,3.39140909 66.6716522,0.0470454545 62.6116522,0.0470454545" id="Fill-3" fill="#E5E6E7" mask="url(#mask-2)"></path>
            </g>
            <g id="Group-8" transform="translate(5.000000, 124.000000)">
                <mask id="mask-4" fill="white">
                    <use xlink:href="#path-3"></use>
                </mask>
                <g id="Clip-7"></g>
                <path d="M62.6116522,0.5049 L8.23991304,0.5049 C4.1783913,0.5049 0.885347826,3.7494 0.885347826,7.7529 C0.885347826,11.7549 4.1783913,15.0009 8.23991304,15.0009 L62.6116522,15.0009 C66.6716522,15.0009 69.9631739,11.7549 69.9631739,7.7529 C69.9631739,3.7494 66.6716522,0.5049 62.6116522,0.5049" id="Fill-6" fill="#E5E6E7" mask="url(#mask-4)"></path>
            </g>
            <path d="M36.8801332,124 L23.4111055,124 C27.0322818,116.343438 28.3448263,107.576857 26.9915944,99.1873489 C25.9292019,92.6801801 23.2016409,86.5728 20.3294137,80.108033 C17.5174641,73.8098447 14.6045495,67.2829892 13.1458318,60.0655895 C10.439368,46.6120898 12.5626462,31.5291478 19.1419452,17.5955987 C19.5367634,16.7793631 19.9541857,15.9010392 20.4333926,15 L35.2556521,15 C33.2152557,17.3442163 31.6133787,20.4607519 30.4259101,22.9503459 C24.9918854,34.4791047 23.2016409,46.7589819 25.3882105,57.5547945 C26.5741721,63.4335075 29.0726782,69.0411515 31.7158506,74.9819528 C34.7975424,81.8858818 38.0043102,89.0411931 39.3153478,97.1581178 C40.7725586,106.13368 39.8774364,115.443913 36.8801332,124" id="Fill-9" fill="#FEFEFE"></path>
        </g>
    </g>
</svg>