<?xml version="1.0" encoding="UTF-8"?>
<svg width="100px" height="140px" viewBox="0 0 100 140" version="1.1" xmlns="http://www.w3.org/2000/svg" xmlns:xlink="http://www.w3.org/1999/xlink">
    <!-- Generator: Sketch 56.2 (81672) - https://sketch.com -->
    <title>Sparkling Water</title>
    <desc>Created with Sketch.</desc>
    <defs>
        <path d="M3.94134615,0.299566176 C3.79711538,0.299566176 3.65480769,0.308235294 3.51153846,0.326536765 L3.51153846,0.326536765 C1.69230769,0.560602941 0.409615385,2.21447794 0.646153846,4.01861765 L0.646153846,4.01861765 L16.8557692,127.563176 C17.0711538,129.203566 18.4807692,130.431691 20.15,130.431691 L20.15,130.431691 L80.1163462,130.431691 C81.7846154,130.431691 83.1951923,129.203566 83.4105769,127.563176 L83.4105769,127.563176 L99.6201923,4.01861765 C99.6384615,3.87702206 99.6480769,3.73542647 99.6480769,3.59383088 L99.6480769,3.59383088 C99.6480769,1.77427941 98.1605769,0.299566176 96.3259615,0.299566176 L96.3259615,0.299566176 L3.94134615,0.299566176 Z" id="path-1"></path>
        <path d="M0.783674419,0.768927835 L13.8909186,90.0086598 C14.1071047,91.4841959 15.5229302,92.587732 17.197407,92.587732 L17.197407,92.587732 L66.0699302,92.587732 C67.7453721,92.587732 69.1602326,91.4841959 69.3773837,90.0086598 L69.3773837,90.0086598 L82.4846279,0.768927835 L0.783674419,0.768927835 Z" id="path-3"></path>
        <path d="M7.5867,1.2825 L6.71175,3.6005 C6.21015,4.92955 5.1794,5.98975 3.86555,6.5284 L3.86555,6.5284 L1.53995,7.4803 C1.0621,7.676 0.68685,8.0636 0.50825,8.54905 L0.50825,8.54905 C0.15485,9.50475 0.6441,10.56685 1.5998,10.92025 L1.5998,10.92025 L3.96055,11.7933 C5.2915,12.28445 6.35835,13.3076 6.90555,14.61765 L6.90555,14.61765 L7.8622,16.90715 C8.06075,17.3812 8.44645,17.7536 8.9281,17.93505 L8.9281,17.93505 C9.89425,18.29985 10.97155,17.81155 11.3373,16.8454 L11.3373,16.8454 L12.2113,14.5274 C12.7129,13.19835 13.74365,12.13815 15.05845,11.5995 L15.05845,11.5995 L17.38405,10.64855 C17.8619,10.45285 18.2362,10.0643 18.4148,9.5798 L18.4148,9.5798 C18.76915,8.62315 18.2799,7.562 17.3242,7.2086 L17.3242,7.2086 L14.96345,6.33555 C13.63155,5.8444 12.5647,4.8203 12.0175,3.51025 L12.0175,3.51025 L11.06085,1.2217 C10.8623,0.74765 10.47755,0.37525 9.9959,0.19285 L9.9959,0.19285 C9.77835,0.11115 9.5551,0.07315 9.33565,0.07315 L9.33565,0.07315 C8.5804,0.07315 7.86885,0.5339 7.5867,1.2825 L7.5867,1.2825 Z" id="path-5"></path>
        <path d="M9.404125,1.95979167 L8.18704167,5.1865 C7.68104167,6.52720833 6.64125,7.59670833 5.31491667,8.14008333 L5.31491667,8.14008333 L2.084375,9.46258333 C1.50554167,9.70025 1.05320833,10.168875 0.835666667,10.755375 L0.835666667,10.755375 C0.40825,11.9130417 0.999541667,13.199125 2.15720833,13.6265417 L2.15720833,13.6265417 L5.43566667,14.8388333 C6.77829167,15.33525 7.85354167,16.367375 8.4065,17.6889167 L8.4065,17.6889167 L9.737625,20.8734583 C9.97816667,21.4484583 10.444875,21.898875 11.0275417,22.1183333 L11.0275417,22.1183333 C12.1976667,22.5591667 13.5029167,21.9688333 13.94375,20.7996667 L13.94375,20.7996667 L15.1608333,17.5729583 C15.6668333,16.23225 16.7075833,15.16275 18.0329583,14.619375 L18.0329583,14.619375 L21.2635,13.296875 C21.8423333,13.0592083 22.295625,12.5915417 22.5122083,12.0040833 L22.5122083,12.0040833 C22.939625,10.8464167 22.3492917,9.56129167 21.191625,9.133875 L21.191625,9.133875 L17.9131667,7.92158333 C16.5705417,7.42516667 15.4943333,6.39208333 14.9423333,5.0715 L14.9423333,5.0715 L13.61025,1.88695833 C13.3697083,1.31195833 12.903,0.861541667 12.3212917,0.641125 L12.3212917,0.641125 C12.05775,0.542416667 11.7875,0.4945 11.5220417,0.4945 L11.5220417,0.4945 C10.6077917,0.4945 9.74625,1.05320833 9.404125,1.95979167 L9.404125,1.95979167 Z" id="path-7"></path>
        <path d="M5.32933333,1.66693333 L4.87946667,2.842 C4.38666667,4.1272 3.388,5.15386667 2.1168,5.68306667 L2.1168,5.68306667 L0.931466667,6.17493333 C0.591733333,6.3168 0.326666667,6.59306667 0.2016,6.93933333 L0.2016,6.93933333 C-0.0476,7.6216 0.3052,8.3748 0.986533333,8.624 L0.986533333,8.624 L2.07293333,9.0188 C3.40106667,9.50133333 4.46413333,10.5214667 5.00173333,11.8272 L5.00173333,11.8272 L5.432,12.8725333 C5.57106667,13.2113333 5.84453333,13.4782667 6.18706667,13.6089333 L6.18706667,13.6089333 C6.874,13.8721333 7.64306667,13.5296 7.90626667,12.8426667 L7.90626667,12.8426667 L8.35613333,11.6676 C8.84893333,10.3824 9.8476,9.35573333 11.1197333,8.82746667 L11.1197333,8.82746667 L12.3041333,8.33373333 C12.6438667,8.1928 12.9089333,7.9156 13.0349333,7.56933333 L13.0349333,7.56933333 C13.2832,6.888 12.9304,6.13386667 12.2490667,5.88653333 L12.2490667,5.88653333 L11.1626667,5.49173333 C9.83453333,5.00826667 8.77146667,3.98906667 8.23386667,2.68146667 L8.23386667,2.68146667 L7.8036,1.63706667 C7.6636,1.29826667 7.39106667,1.03226667 7.04946667,0.899733333 L7.04946667,0.899733333 C6.89173333,0.84 6.7312,0.812 6.57253333,0.812 L6.57253333,0.812 C6.03773333,0.812 5.5328,1.1368 5.32933333,1.66693333 L5.32933333,1.66693333 Z" id="path-9"></path>
    </defs>
    <g id="Sparkling-Water" stroke="none" stroke-width="1" fill="none" fill-rule="evenodd">
        <g id="Group-16" transform="translate(0.000000, 4.000000)">
            <g id="Group-3">
                <mask id="mask-2" fill="white">
                    <use xlink:href="#path-1"></use>
                </mask>
                <g id="Clip-2"></g>
                <polygon id="Fill-1" fill="#FEFEFE" mask="url(#mask-2)" points="-17.3076923 148.338235 117.573077 148.338235 117.573077 -17.6069779 -17.3076923 -17.6069779"></polygon>
            </g>
            <g id="Group-6" transform="translate(9.000000, 31.000000)">
                <mask id="mask-4" fill="white">
                    <use xlink:href="#path-3"></use>
                </mask>
                <g id="Clip-5"></g>
                <polygon id="Fill-4" fill="#93D8F7" mask="url(#mask-4)" points="-12.2058256 105.491722 95.4741279 105.491722 95.4741279 -12.1350619 -12.2058256 -12.1350619"></polygon>
            </g>
            <g id="Group-9" transform="translate(54.000000, 70.000000)">
                <mask id="mask-6" fill="white">
                    <use xlink:href="#path-5"></use>
                </mask>
                <g id="Clip-8"></g>
                <polygon id="Fill-7" fill="#FEFEFE" mask="url(#mask-6)" points="8.97351 -18.848 37.37376 8.5785 9.95011 36.97685 -18.45109 9.55035"></polygon>
            </g>
            <g id="Group-12" transform="translate(26.000000, 49.000000)">
                <mask id="mask-8" fill="white">
                    <use xlink:href="#path-7"></use>
                </mask>
                <g id="Clip-11"></g>
                <polygon id="Fill-10" fill="#FEFEFE" mask="url(#mask-8)" points="11.1467583 -18.7607167 41.8143833 10.8556167 12.2018833 41.5203667 -18.4667 11.9049917"></polygon>
            </g>
            <g id="Group-15" transform="translate(37.000000, 93.000000)">
                <mask id="mask-10" fill="white">
                    <use xlink:href="#path-9"></use>
                </mask>
                <g id="Clip-14"></g>
                <polygon id="Fill-13" fill="#FEFEFE" mask="url(#mask-10)" points="6.22850667 -17.5493733 31.42104 6.77796 7.00690667 32.05916 -18.1846933 7.73089333"></polygon>
            </g>
        </g>
    </g>
</svg>