<?xml version="1.0" encoding="UTF-8"?>
<svg width="100px" height="140px" viewBox="0 0 100 140" version="1.1" xmlns="http://www.w3.org/2000/svg" xmlns:xlink="http://www.w3.org/1999/xlink">
    <!-- Generator: Sketch 56.2 (81672) - https://sketch.com -->
    <title>Strong Liquor</title>
    <desc>Created with Sketch.</desc>
    <defs>
        <polygon id="path-1" points="0.00025 0.064 99.93625 0.064 99.93625 100 0.00025 100"></polygon>
    </defs>
    <g id="Strong-Liquor" stroke="none" stroke-width="1" fill="none" fill-rule="evenodd">
        <g id="Group-10" transform="translate(0.000000, 20.000000)">
            <g id="Group-3">
                <mask id="mask-2" fill="white">
                    <use xlink:href="#path-1"></use>
                </mask>
                <g id="Clip-2"></g>
                <path d="M94.044,100.00025 L5.89275,100.00025 C2.63775,100.00025 0.00025,97.3615 0.00025,94.10775 L0.00025,0.064 L99.9365,0.064 L99.9365,94.10775 C99.9365,97.3615 97.299,100.00025 94.044,100.00025" id="Fill-1" fill="#FEFEFE" mask="url(#mask-2)"></path>
            </g>
            <path d="M91.1226165,85 L7.87738353,85 C6.8400792,85 6,84.1543898 6,83.110256 L6,38.889744 C6,37.8456102 6.8400792,37 7.87738353,37 L91.1226165,37 C92.1599208,37 93,37.8456102 93,38.889744 L93,83.110256 C93,84.1543898 92.1599208,85 91.1226165,85" id="Fill-4" fill="#DAA516"></path>
            <path d="M54.6887052,51.9267196 L25.8419533,63.8390879 C24.7598082,64.2854882 23.5209214,63.7713754 23.073267,62.6892308 L11.1608939,33.8424907 C10.7144934,32.7590921 11.2286063,31.5202058 12.3120053,31.0738055 L41.1575033,19.1614373 C42.2396483,18.713783 43.4797891,19.2291497 43.9261896,20.3112943 L55.8385627,49.1580344 C56.2862171,50.2401791 55.7708502,51.4803193 54.6887052,51.9267196" id="Fill-6" fill="#FEFEFE"></path>
            <path d="M68.4418194,79.6400254 L42.9203352,62.3496086 C41.9629389,61.7018373 41.711514,60.3988632 42.3605123,59.4414497 L59.6506181,33.9195064 C60.2996163,32.9620929 61.6013284,32.7119021 62.5587247,33.360912 L88.0802089,50.6500902 C89.0376052,51.2991001 89.2877915,52.6008357 88.6400318,53.5582491 L71.349926,79.0801924 C70.7009278,80.0376059 69.3992157,80.2877967 68.4418194,79.6400254" id="Fill-8" fill="#FEFEFE"></path>
        </g>
    </g>
</svg>