<?xml version="1.0" encoding="UTF-8"?>
<svg width="100px" height="140px" viewBox="0 0 100 140" version="1.1" xmlns="http://www.w3.org/2000/svg" xmlns:xlink="http://www.w3.org/1999/xlink">
    <!-- Generator: Sketch 56.2 (81672) - https://sketch.com -->
    <title>Tea</title>
    <desc>Created with Sketch.</desc>
    <defs>
        <polygon id="path-1" points="0.81828 0.30798 95.4405 0.30798 95.4405 62.22978 0.81828 62.22978"></polygon>
    </defs>
    <g id="Tea" stroke="none" stroke-width="1" fill="none" fill-rule="evenodd">
        <g id="Group-8" transform="translate(0.000000, 34.000000)">
            <polygon id="Fill-1" fill="#FDDA2F" points="10 45 41 45 41 0 10 0"></polygon>
            <g id="Group-7">
                <g id="Group-4" transform="translate(2.700000, 0.000000)">
                    <mask id="mask-2" fill="white">
                        <use xlink:href="#path-1"></use>
                    </mask>
                    <g id="Clip-3"></g>
                    <path d="M86.55048,23.79618 C86.55048,28.62468 82.60038,32.57478 77.77188,32.57478 L76.44258,32.57478 L76.44258,15.01758 L77.77188,15.01758 C82.60038,15.01758 86.55048,18.96768 86.55048,23.79618 M78.42078,6.77628 L76.41108,6.77628 C76.09338,3.16548 73.04328,0.30798 69.35328,0.30798 L25.59708,0.30798 L25.59708,19.42668 L30.81618,23.49918 C31.64688,24.14808 32.13288,25.14258 32.13288,26.19558 L32.13288,37.37178 C32.13288,39.26088 30.60108,40.79268 28.71198,40.79268 L16.49898,40.79268 C14.60898,40.79268 13.07808,39.26088 13.07808,37.37178 L13.07808,26.19558 C13.07808,25.14258 13.56318,24.14808 14.39388,23.49918 L19.61298,19.42578 L19.61298,0.30798 L7.90848,0.30798 C4.00878,0.30798 0.81828,3.49848 0.81828,7.39728 L0.81828,40.80258 C0.81828,52.58718 10.46088,62.22978 22.24638,62.22978 L55.01538,62.22978 C66.79548,62.22978 76.43448,52.59528 76.44258,40.81608 L78.42078,40.81608 C87.78168,40.81608 95.44068,33.15708 95.44068,23.79618 C95.44068,14.43528 87.78168,6.77628 78.42078,6.77628" id="Fill-2" fill="#FEFEFE" mask="url(#mask-2)"></path>
                </g>
                <path d="M78.33978,71.99982 L4.40838,71.99982 C1.97388,71.99982 0.00018,70.02612 0.00018,67.59162 L0.00018,66.63762 C0.00018,64.20312 1.97388,62.22942 4.40838,62.22942 L78.33978,62.22942 C80.77428,62.22942 82.74798,64.20312 82.74798,66.63762 L82.74798,67.59162 C82.74798,70.02612 80.77428,71.99982 78.33978,71.99982" id="Fill-5" fill="#FEFEFE"></path>
            </g>
        </g>
    </g>
</svg>