<?xml version="1.0" encoding="UTF-8"?>
<svg width="100px" height="140px" viewBox="0 0 100 140" version="1.1" xmlns="http://www.w3.org/2000/svg" xmlns:xlink="http://www.w3.org/1999/xlink">
    <!-- Generator: Sketch 56.2 (81672) - https://sketch.com -->
    <title>Water</title>
    <desc>Created with Sketch.</desc>
    <defs>
        <path d="M3.94134615,0.299566176 C3.79711538,0.299566176 3.65480769,0.308235294 3.51153846,0.326536765 L3.51153846,0.326536765 C1.69230769,0.560602941 0.409615385,2.21447794 0.646153846,4.01861765 L0.646153846,4.01861765 L16.8557692,127.563176 C17.0711538,129.203566 18.4817308,130.431691 20.15,130.431691 L20.15,130.431691 L80.1163462,130.431691 C81.7855769,130.431691 83.1951923,129.203566 83.4105769,127.563176 L83.4105769,127.563176 L99.6201923,4.01861765 C99.6394231,3.87702206 99.6480769,3.73542647 99.6480769,3.59383088 L99.6480769,3.59383088 C99.6480769,1.77427941 98.1615385,0.299566176 96.3259615,0.299566176 L96.3259615,0.299566176 L3.94134615,0.299566176 Z" id="path-1"></path>
        <path d="M0.783674419,0.768927835 L13.8909186,90.0086598 C14.1080698,91.4841959 15.5229302,92.587732 17.197407,92.587732 L17.197407,92.587732 L66.0699302,92.587732 C67.7453721,92.587732 69.1611977,91.4841959 69.3773837,90.0086598 L69.3773837,90.0086598 L82.4846279,0.768927835 L0.783674419,0.768927835 Z" id="path-3"></path>
    </defs>
    <g id="Water" stroke="none" stroke-width="1" fill="none" fill-rule="evenodd">
        <g id="Group-10" transform="translate(0.000000, 4.000000)">
            <g id="Group-3">
                <mask id="mask-2" fill="white">
                    <use xlink:href="#path-1"></use>
                </mask>
                <g id="Clip-2"></g>
                <polygon id="Fill-1" fill="#FEFEFE" mask="url(#mask-2)" points="-17.3076923 148.338235 117.573077 148.338235 117.573077 -17.6069779 -17.3076923 -17.6069779"></polygon>
            </g>
            <path d="M10,32 L91,32 L78.0060128,121.416772 C77.7907221,122.894275 76.3879839,124 74.7268969,124 L26.2731031,124 C24.6120161,124 23.2092779,122.894275 22.9949441,121.416772 L10,32 Z" id="Fill-4" fill="#29AAE1"></path>
            <g id="Group-9" transform="translate(9.000000, 31.000000)">
                <mask id="mask-4" fill="white">
                    <use xlink:href="#path-3"></use>
                </mask>
                <g id="Clip-7"></g>
                <polygon id="Fill-6" fill="#29AAE1" mask="url(#mask-4)" points="-14.2219535 104.065082 97.4902558 104.065082 97.4902558 -35.3016495 -14.2219535 -35.3016495"></polygon>
                <polygon id="Fill-8" fill="#29AAE1" mask="url(#mask-4)" points="-12.2058256 105.491722 95.4741279 105.491722 95.4741279 -12.1350619 -12.2058256 -12.1350619"></polygon>
            </g>
        </g>
    </g>
</svg>