<?xml version="1.0" encoding="UTF-8"?>
<svg width="100px" height="140px" viewBox="0 0 100 140" version="1.1" xmlns="http://www.w3.org/2000/svg" xmlns:xlink="http://www.w3.org/1999/xlink">
    <!-- Generator: Sketch 56.2 (81672) - https://sketch.com -->
    <title>Wine</title>
    <desc>Created with Sketch.</desc>
    <defs>
        <polygon id="path-1" points="0 0.154482759 70.6022055 0.154482759 70.6022055 139.999807 0 139.999807"></polygon>
    </defs>
    <g id="Wine" stroke="none" stroke-width="1" fill="none" fill-rule="evenodd">
        <g id="Group-6" transform="translate(15.000000, 0.000000)">
            <g id="Group-3">
                <mask id="mask-2" fill="white">
                    <use xlink:href="#path-1"></use>
                </mask>
                <g id="Clip-2"></g>
                <path d="M68.0386192,136.576083 L56.0833863,131.938703 L37.663263,124.793876 L37.663263,71.7976 C44.4637014,71.3254621 63.9760575,68.6760828 68.7816877,53.7868414 C73.6913863,38.5722207 67.3539068,11.0800828 65.1986192,2.66849655 C64.8183315,1.18449655 63.4741945,0.154289655 61.9316466,0.154289655 L35.300811,0.154289655 L8.66997534,0.154289655 C7.1284,0.154289655 5.78329041,1.18449655 5.40300274,2.66849655 C3.24868767,11.0800828 -3.08879178,38.5722207 1.82090685,53.7868414 C6.62556438,68.6760828 26.1388932,71.3254621 32.9393315,71.7976 L32.9393315,124.793876 L14.5182356,131.938703 L2.56300274,136.576083 C0.723810959,137.2896 1.23831781,139.999807 3.21367397,139.999807 L35.300811,139.999807 L67.3889205,139.999807 C69.3633041,139.999807 69.877811,137.2896 68.0386192,136.576083" id="Fill-1" fill="#FEFEFE" mask="url(#mask-2)"></path>
            </g>
            <path d="M64.0278269,28.952012 C63.9669914,28.6595382 63.8747571,28.3307506 63.6078661,28.1943282 C63.5568428,28.1668475 63.5009135,28.1501627 63.4430217,28.1383852 C63.3429376,28.1187561 63.2369662,28.1177747 63.1339384,28.1177747 C53.8025667,28.1079601 44.4721763,28.0490728 35.1417858,28.0009815 C35.1388422,28.0009815 35.137861,28 35.1349173,28 C35.0897813,28 35.0446454,28 34.9995094,28.0009815 C34.9543734,28 34.9102187,28 34.8650827,28 C34.862139,28 34.8601766,28.0009815 34.8582142,28.0009815 C25.5278237,28.0490728 16.1964521,28.1079601 6.86606161,28.1177747 C6.76303385,28.1177747 6.65706243,28.1187561 6.55697832,28.1383852 C6.49908653,28.1501627 6.44315717,28.1668475 6.3921339,28.1943282 C6.12524293,28.3307506 6.03398977,28.6595382 5.97217312,28.952012 C5.04688568,33.3823028 4.87026666,38.2503228 5.07828462,42.7699261 C5.32064517,48.0629165 6.58837726,53.3578697 10.3542873,57.2081203 C16.3897518,63.3795134 26.3559707,65.9312981 34.8385898,65.9941113 L34.8395711,66 C34.8925568,66 34.9465237,65.9970556 34.9995094,65.9970556 C35.0534763,65.9970556 35.1074432,66 35.1604289,66 L35.1614102,65.9941113 C43.6440293,65.9312981 53.609267,63.3795134 59.6457127,57.2081203 C63.4116227,53.3578697 64.6783736,48.0629165 64.9217154,42.7699261 C65.1297333,38.2503228 64.9531143,33.3823028 64.0278269,28.952012" id="Fill-4" fill="#9E1F62"></path>
        </g>
    </g>
</svg>